<svg aria-hidden="true" style="position: absolute; width: 0; height: 0; overflow: hidden;" version="1.1" xmlns="http://www.w3.org/2000/svg" xmlns:xlink="http://www.w3.org/1999/xlink">
    <defs>
        <symbol id="icon-active" viewBox="0 0 32 32">
            <path fill="#c50f1f" style="fill: var(--color1, #c50f1f); stroke: var(--color2, #fff)" stroke="#fff" stroke-linejoin="miter" stroke-linecap="butt" stroke-miterlimit="4" stroke-width="1.6" d="M31.2 16c0 8.395-6.805 15.2-15.2 15.2s-15.2-6.805-15.2-15.2c0-8.395 6.805-15.2 15.2-15.2s15.2 6.805 15.2 15.2z"></path>
            <path fill="#fff" style="fill: var(--color2, #fff)" d="M19.101 14.901c0.153 0 0.295 0.029 0.427 0.088 0.135 0.058 0.252 0.137 0.35 0.235s0.177 0.215 0.235 0.35c0.058 0.131 0.088 0.273 0.088 0.427s-0.029 0.297-0.088 0.432c-0.058 0.131-0.137 0.246-0.235 0.345s-0.215 0.177-0.35 0.235c-0.131 0.058-0.273 0.088-0.427 0.088h-6.541c-0.153 0-0.297-0.029-0.432-0.088-0.131-0.058-0.246-0.137-0.345-0.235s-0.177-0.213-0.235-0.345c-0.055-0.135-0.082-0.279-0.082-0.432s0.027-0.295 0.082-0.427c0.058-0.135 0.137-0.252 0.235-0.35s0.213-0.177 0.345-0.235c0.135-0.058 0.279-0.088 0.432-0.088h6.541z"></path>
        </symbol>
        <symbol id="icon-inactive" viewBox="0 0 32 32">
            <path fill="#fff" style="fill: var(--color2, #fff); stroke: var(--color2, #fff)" stroke="#fff" stroke-linejoin="miter" stroke-linecap="butt" stroke-miterlimit="4" stroke-width="1.6" d="M31.2 16c0 8.395-6.805 15.2-15.2 15.2s-15.2-6.805-15.2-15.2c0-8.395 6.805-15.2 15.2-15.2s15.2 6.805 15.2 15.2z"></path>
            <path fill="none" stroke="#c50f1f" style="stroke: var(--color1, #c50f1f)" stroke-linejoin="miter" stroke-linecap="butt" stroke-miterlimit="4" stroke-width="0.8" d="M30 16c0 7.732-6.268 14-14 14s-14-6.268-14-14c0-7.732 6.268-14 14-14s14 6.268 14 14z"></path>
            <path fill="#c50f1f" style="fill: var(--color1, #c50f1f)" d="M19.101 14.901c0.153 0 0.295 0.029 0.427 0.088 0.135 0.058 0.252 0.137 0.35 0.235s0.177 0.215 0.235 0.35c0.058 0.131 0.088 0.273 0.088 0.427s-0.029 0.297-0.088 0.432c-0.058 0.131-0.137 0.246-0.235 0.345s-0.215 0.177-0.35 0.235c-0.131 0.058-0.273 0.088-0.427 0.088h-6.541c-0.153 0-0.297-0.029-0.432-0.088-0.131-0.058-0.246-0.137-0.345-0.235s-0.177-0.213-0.235-0.345c-0.055-0.135-0.082-0.279-0.082-0.432s0.027-0.295 0.082-0.427c0.058-0.135 0.137-0.252 0.235-0.35s0.213-0.177 0.345-0.235c0.135-0.058 0.279-0.088 0.432-0.088h6.541z"></path>
        </symbol>
    </defs>
</svg>
